<svg xmlns="http://www.w3.org/2000/svg" xmlns:xlink="http://www.w3.org/1999/xlink" width="158" height="150" version="1.1" viewBox="0 0 158 150"><title>delivery</title><desc>Created with Sketch.</desc><defs><polygon id="path-1" points="0 .123 0 148.684 157.596 148.684 157.596 .123 0 .123 0 148.684 148.561 148.684 148.561 .123"/><polygon id="path-3" points="0 149.219 157.596 149.219 157.596 .658 0 .658"/></defs><g id="Page-1" fill="none" fill-rule="evenodd" stroke="none" stroke-width="1"><g id="delivery"><g id="Group-3" transform="translate(0.000000, 0.534868)"><mask id="mask-2" fill="#fff"><use xlink:href="#path-1"/></mask></g><path id="Fill-1" fill="#FF6345" d="M148.561118,74.9385526 C148.561118,115.962895 115.304539,149.218816 74.2808553,149.218816 C33.2565132,149.218816 -6.57894737e-05,115.962895 -6.57894737e-05,74.9385526 C-6.57894737e-05,33.9142105 33.2565132,0.658289474 74.2808553,0.658289474 C115.304539,0.658289474 148.561118,33.9142105 148.561118,74.9385526"/><polygon id="Fill-4" fill="#DDBB6F" points="60.441 125.562 154.52 125.562 146.625 32.034 146.625 16.351 68.335 16.351 68.335 30.167"/><polygon id="Fill-6" fill="#525174" points="45.967 76.878 86.099 76.878 78.303 131.483 52.957 131.483"/><mask id="mask-4" fill="#fff"><use xlink:href="#path-3"/></mask><polygon id="Fill-8" fill="#90ABB2" points="42.255 82.027 89.697 82.027 89.697 72.961 42.255 72.961" mask="url(#mask-4)"/><polygon id="Fill-10" fill="#E2C88F" points="46.514 97.284 84.953 97.272 82.932 110.43 48.239 110.43" mask="url(#mask-4)"/><polygon id="Fill-11" fill="#AF7948" points="154.52 125.615 157.596 115.61 149.239 31.51 149.605 16.682 147.958 19.057 146.625 16.351 146.625 32.14" mask="url(#mask-4)"/><polygon id="Fill-12" fill="#AF7948" points="91.677 39.915 127.907 39.915 127.907 16.238 91.677 16.238" mask="url(#mask-4)"/><polygon id="Fill-13" fill="#FCE9BB" points="90.313 37.505 125.997 37.505 125.997 13.828 90.313 13.828" mask="url(#mask-4)"/><path id="Fill-14" fill="#CB1F2D" d="M52.9570395,131.482895 L78.3024342,131.482895 L79.1925658,125.668421 L128.715592,125.588816 C128.715592,125.588816 124.501118,130.293421 116.954408,135.879605 L52.9570395,131.482895 Z" mask="url(#mask-4)"/><polygon id="Fill-15" fill="#525174" points="47.986 72.964 52.016 72.939 51.078 64.045 50.723 60.54 37.57 62.53 37.944 65.668 47.16 64.402" mask="url(#mask-4)"/><polygon id="Fill-16" fill="#ABC8CE" points="69.323 82.047 89.697 82.047 89.697 72.953 69.323 72.953" mask="url(#mask-4)"/><polygon id="Fill-17" fill="#3A3A56" points="69.305 82.141 85.441 82.141 83.157 97.272 69.219 97.272" mask="url(#mask-4)"/><polyline id="Fill-18" fill="#FCE9BB" points="69.028 97.278 84.891 97.272 83.376 110.43 68.993 110.43" mask="url(#mask-4)"/><polygon id="Fill-19" fill="#3A3A56" points="69.764 110.495 81.232 110.472 78.303 131.483 69.651 131.483" mask="url(#mask-4)"/><path id="Fill-20" fill="#FF8C7D" d="M44.8482895,52.3253947 C43.0607895,52.8332895 41.7035526,54.0260526 40.7607895,55.8767105 C40.3292105,53.9839474 39.1851316,52.5931579 37.2094737,51.7892105 C39.1542105,50.9793421 40.5792105,49.8352632 41.2969737,48.2378947 C41.8213158,49.9102632 42.8976316,51.3234211 44.8482895,52.3253947" mask="url(#mask-4)"/><path id="Fill-21" fill="#FFB9B6" d="M59.7295395,40.9248684 C57.6683553,41.5103947 56.1032237,42.8860526 55.0163816,45.0196053 C54.5183553,42.8373684 53.1986184,41.2340789 50.9209868,40.3064474 C53.16375,39.3722368 54.8065132,38.0531579 55.6341447,36.2117105 C56.2394079,38.14 57.4801974,39.7696053 59.7295395,40.9248684" mask="url(#mask-4)"/></g></g></svg>