<svg xmlns="http://www.w3.org/2000/svg" xmlns:xlink="http://www.w3.org/1999/xlink" width="161" height="150" version="1.1" viewBox="0 0 161 150"><title>menu</title><desc>Created with Sketch.</desc><defs><polygon id="path-1" points="0 .123 0 148.684 160.171 148.684 160.171 .123 0 .123 0 148.684 148.561 148.684 148.561 .123"/></defs><g id="Page-1" fill="none" fill-rule="evenodd" stroke="none" stroke-width="1"><g id="menu"><g id="Group-3" transform="translate(0.000000, 0.534868)"><mask id="mask-2" fill="#fff"><use xlink:href="#path-1"/></mask></g><path id="Fill-1" fill="#40C1C1" d="M148.561118,74.9385526 C148.561118,115.962895 115.304539,149.218816 74.2808553,149.218816 C33.2565132,149.218816 -6.57894738e-05,115.962895 -6.57894738e-05,74.9385526 C-6.57894738e-05,33.9142105 33.2565132,0.658289474 74.2808553,0.658289474 C115.304539,0.658289474 148.561118,33.9142105 148.561118,74.9385526"/><path id="Fill-4" fill="#258C87" d="M51.8561184,120.455263 L109.192961,140.389474 C109.192961,140.389474 116.482434,137.932237 129.831118,124.146053 L51.8561184,120.455263 Z"/><polygon id="Fill-6" fill="#C4A25F" points="126.405 127.234 52.7 124.958 56.063 16.046 129.767 18.322"/><path id="Fill-8" fill="#61DBD8" d="M34.7939474,66.8742105 C33.0064474,67.3821053 31.6492105,68.5748684 30.7064474,70.4255263 C30.2748684,68.5327632 29.1307895,67.1419737 27.1551316,66.3380263 C29.0998684,65.5281579 30.5248684,64.3840789 31.2426316,62.7867105 C31.7669737,64.4590789 32.8432895,65.8722368 34.7939474,66.8742105"/><path id="Fill-10" fill="#8BF2EC" d="M47.5509868,51.395 C45.4898026,51.9805263 43.9246711,53.3561842 42.8378289,55.4897368 C42.3398026,53.3075 41.0200658,51.7042105 38.7424342,50.7765789 C40.9851974,49.8423684 42.6279605,48.5232895 43.4555921,46.6818421 C44.0608553,48.6101316 45.3016447,50.2397368 47.5509868,51.395"/><path id="Fill-12" fill="#87562E" d="M77.7856579,103.895921 C77.7856579,119.003816 65.5382895,131.251184 50.4303947,131.251184 C40.0132895,131.251184 30.9567105,125.428816 26.3363158,116.860395 C25.6764474,115.636711 25.1067105,114.356447 24.6369737,113.029474 C24.1659211,111.699211 23.7948684,110.322237 23.5330263,108.906447 C23.2323684,107.282105 23.0751316,105.607105 23.0751316,103.895921 C23.0751316,88.7880263 35.3225,76.5406579 50.4303947,76.5406579 C65.5382895,76.5406579 77.7856579,88.7880263 77.7856579,103.895921"/><path id="Fill-14" fill="#E08624" d="M48.8000658,82.1731579 C48.7461184,82.6442105 48.7454605,83.1192105 48.7974342,83.5902632 C48.5165132,83.4810526 48.2323026,83.3784211 47.9428289,83.2863158 C48.2994079,82.9790789 48.5915132,82.6007895 48.8000658,82.1731579 M68.5500658,94.7356579 C69.3151974,93.5909211 69.7619079,92.2159211 69.7619079,90.7363158 C69.7619079,86.7547368 66.5342763,83.5264474 62.5520395,83.5264474 C62.1263816,83.5264474 61.7119079,83.5705263 61.3059868,83.6415789 C61.5474342,81.7731579 60.9599342,79.8225 59.5290132,78.3915789 C57.0730921,75.9356579 53.0816447,75.9461842 50.6132237,78.4146053 C49.9421711,79.0856579 49.4592763,79.8705263 49.1520395,80.7053947 C49.1520395,80.6869737 49.1546711,80.6692105 49.1546711,80.6507895 C49.1546711,78.7290789 47.5967763,77.1705263 45.6744079,77.1705263 C43.7526974,77.1705263 42.1948026,78.7290789 42.1948026,80.6507895 C42.1948026,81.3560526 42.4059868,82.0113158 42.7665132,82.5593421 C34.4421711,82.8001316 27.7658553,89.6192105 27.7658553,98.0021053 C27.7658553,104.388289 31.6408553,109.869868 37.1678289,112.224474 C37.3316447,115.627763 40.1342763,118.338289 43.5776974,118.338289 C45.74875,118.338289 47.6638816,117.259342 48.8276974,115.611316 C51.3375658,117.7475 54.5882237,119.039605 58.1428289,119.039605 C66.08625,119.039605 72.5257237,112.600132 72.5257237,104.656711 C72.5257237,100.808684 71.01125,97.3165789 68.5500658,94.7356579"/><path id="Fill-16" fill="#FCE9BB" d="M55.2015132,102.385789 C53.0436184,104.543684 49.5423026,104.541053 47.3811184,102.379868 C45.2205921,100.218684 45.2179605,96.7180263 47.3758553,94.5601316 C49.53375,92.4022368 53.0344079,92.4048684 55.1955921,94.5660526 C57.3567763,96.7265789 57.3594079,100.227895 55.2015132,102.385789"/><path id="Fill-18" fill="#FFBDB0" d="M37.2221053,92.9990132 L37.1214474,93.0174342 C36.6036842,93.1128289 36.1017105,92.7667763 36.0063158,92.2483553 L35.4036842,88.9720395 C35.3082895,88.4536184 35.6543421,87.9516447 36.1727632,87.85625 L36.2727632,87.8378289 C36.7911842,87.7424342 37.2931579,88.0884868 37.3885526,88.6069079 L37.9911842,91.8832237 C38.0865789,92.4016447 37.7405263,92.9036184 37.2221053,92.9990132"/><path id="Fill-20" fill="#FFBDB0" d="M38.0077632,103.506908 L37.9419737,103.428618 C37.6018421,103.026645 37.6525,102.41875 38.0551316,102.078618 L40.5992105,99.9279605 C41.0018421,99.5878289 41.6097368,99.6391447 41.9498684,100.041118 L42.0156579,100.119408 C42.3557895,100.522039 42.3044737,101.129276 41.9025,101.469408 L39.3577632,103.620066 C38.9557895,103.960197 38.3478947,103.909539 38.0077632,103.506908"/><path id="Fill-22" fill="#FFBDB0" d="M50.1979605,90.9159211 L50.10125,90.8836842 C49.60125,90.7172368 49.3282237,90.1718421 49.4946711,89.6718421 L50.5479605,86.5113158 C50.7144079,86.0113158 51.2598026,85.7382895 51.7598026,85.9047368 L51.8565132,85.9369737 C52.3565132,86.1040789 52.6288816,86.6488158 52.4624342,87.1488158 L51.4098026,90.31 C51.2433553,90.81 50.6979605,91.0823684 50.1979605,90.9159211"/><path id="Fill-24" fill="#FFBDB0" d="M59.875,98.7626974 L59.9052632,98.6653289 C60.0605263,98.1613816 60.5993421,97.8765132 61.1026316,98.0317763 L64.2868421,99.0120395 C64.7901316,99.1673026 65.075,99.7061184 64.9203947,100.210066 L64.8901316,100.307434 C64.7348684,100.811382 64.1960526,101.09625 63.6921053,100.940987 L60.5085526,99.9600658 C60.0052632,99.8054605 59.7197368,99.2659868 59.875,98.7626974"/><path id="Fill-26" fill="#FFBDB0" d="M48.0161842,111.909145 L48.0569737,111.815066 C48.2655263,111.331513 48.8319737,111.106513 49.3161842,111.315066 L52.3747368,112.635461 C52.8582895,112.844013 53.0832895,113.411118 52.8747368,113.894671 L52.8339474,113.98875 C52.6253947,114.472303 52.0589474,114.697303 51.5747368,114.48875 L48.5161842,113.168355 C48.0326316,112.959803 47.8076316,112.392697 48.0161842,111.909145"/><path id="Fill-28" fill="#FFBDB0" d="M62.8464474,112.003026 L62.7471053,112.026053 C62.2339474,112.146447 61.7155263,111.825395 61.5957895,111.312237 L60.8359211,108.068158 C60.7155263,107.555658 61.0372368,107.037237 61.5503947,106.916842 L61.6497368,106.893816 C62.1628947,106.773421 62.6806579,107.095132 62.8010526,107.608289 L63.5609211,110.851711 C63.6806579,111.364868 63.3596053,111.882632 62.8464474,112.003026"/><polygon id="Fill-30" fill="#FCE9BB" points="146.213 131.815 66.906 121.572 80.863 13.505 160.171 23.749"/><polygon id="Fill-32" fill="#EBD096" points="157.23 44.928 78.124 34.711 80.863 13.505 159.969 23.723"/><polygon id="Fill-34" fill="#EBD096" points="136.285 57.801 87.046 51.442 87.492 47.986 136.731 54.345"/><polygon id="Fill-36" fill="#EBD096" points="114.278 62.997 86.157 59.365 86.603 55.91 114.724 59.541"/><polygon id="Fill-38" fill="#EBD096" points="133.346 80.55 84.108 74.191 84.554 70.735 133.792 77.094"/><polygon id="Fill-40" fill="#EBD096" points="111.339 85.747 83.219 82.114 83.665 78.659 111.785 82.291"/><polygon id="Fill-42" fill="#EBD096" points="130.488 102.685 81.249 96.326 81.695 92.87 130.934 99.229"/><polygon id="Fill-44" fill="#EBD096" points="108.481 107.881 80.36 104.249 80.806 100.794 108.927 104.425"/></g></g></svg>